<svg xmlns="http://www.w3.org/2000/svg" width="512" height="512" viewBox="60 60 260 260">
  <defs>
    <linearGradient id="icon_0gc5o788_grad" x1="60" y1="60" x2="320" y2="320" gradientUnits="userSpaceOnUse">
      <stop offset="0%" stop-color="#4ebef0" />
      <stop offset="100%" stop-color="#3365d6" />
    </linearGradient>
  </defs>
  <rect x="60" y="60" width="260" height="260" rx="20" ry="20" fill="url(#icon_0gc5o788_grad)" />
  <g transform="translate(105 105) scale(10.625)">
    <g color="#fff" fill="currentColor" stroke="none">
      <path d="M2 2a2 2 0 0 0-2 2v8.01A2 2 0 0 0 2 14h5.5a.5.5 0 0 0 0-1H2a1 1 0 0 1-.966-.741l5.64-3.471L8 9.583l7-4.2V8.5a.5.5 0 0 0 1 0V4a2 2 0 0 0-2-2zm3.708 6.208L1 11.105V5.383zM1 4.217V4a1 1 0 0 1 1-1h12a1 1 0 0 1 1 1v.217l-7 4.2z"/>
        <path d="M12.5 16a3.5 3.5 0 1 0 0-7 3.5 3.5 0 0 0 0 7m.5-5v1.5a.5.5 0 0 1-1 0V11a.5.5 0 0 1 1 0m0 3a.5.5 0 1 1-1 0 .5.5 0 0 1 1 0"/>
    </g>
  </g>
</svg>
